<?xml version="1.0" standalone="no"?>
<!DOCTYPE svg PUBLIC "-//W3C//DTD SVG 20010904//EN"
 "http://www.w3.org/TR/2001/REC-SVG-20010904/DTD/svg10.dtd">
<svg version="1.0" xmlns="http://www.w3.org/2000/svg"
 width="626.000000pt" height="417.000000pt" viewBox="0 0 626.000000 417.000000"
 preserveAspectRatio="xMidYMid meet">

<g transform="translate(0.000000,417.000000) scale(0.100000,-0.100000)"
fill="#000000" stroke="none">
<path d="M1225 2180 c9 -16 20 -30 26 -30 5 0 0 14 -13 30 -12 17 -23 30 -25
30 -2 0 3 -13 12 -30z"/>
<path d="M1171 2134 c0 -11 3 -14 6 -6 3 7 2 16 -1 19 -3 4 -6 -2 -5 -13z"/>
<path d="M1250 2121 c0 -11 4 -22 9 -25 4 -3 6 6 3 19 -5 30 -12 33 -12 6z"/>
<path d="M1140 2070 c0 -33 19 -47 48 -35 16 6 16 7 0 19 -10 7 -18 21 -18 30
0 9 -7 16 -15 16 -10 0 -15 -10 -15 -30z"/>
<path d="M1285 2080 c-3 -5 -1 -10 4 -10 6 0 11 5 11 10 0 6 -2 10 -4 10 -3 0
-8 -4 -11 -10z"/>
<path d="M1290 2059 c-33 -18 -34 -20 -12 -25 26 -7 27 -19 7 -67 -12 -29 -31
-43 -67 -51 -9 -2 -58 -75 -58 -87 0 -6 -4 -8 -8 -5 -5 3 -7 -5 -6 -17 1 -12
3 -22 4 -22 2 0 4 -10 5 -22 1 -12 -2 -20 -6 -17 -5 3 -9 14 -9 24 0 10 -9 21
-20 25 -20 6 -22 27 -5 55 5 9 0 8 -13 -4 -19 -17 -22 -17 -22 -3 0 10 -6 16
-12 14 -8 -1 -12 6 -10 17 2 11 -1 15 -8 11 -7 -4 -9 -18 -6 -30 4 -14 0 -29
-9 -38 -8 -8 -11 -17 -8 -21 4 -3 -2 -6 -12 -6 -17 0 -17 -1 -1 -19 10 -11 28
-22 41 -25 20 -5 24 -12 21 -34 -2 -15 -1 -21 1 -14 7 20 28 8 25 -14 -2 -11
1 -15 5 -9 27 34 82 -2 68 -45 -4 -12 -2 -20 5 -20 7 0 10 -7 6 -15 -3 -8 -1
-15 5 -15 6 0 8 -9 4 -20 -5 -15 -3 -18 8 -14 8 3 21 -1 28 -9 8 -7 20 -12 27
-9 9 3 11 -4 7 -25 -3 -15 -2 -22 1 -15 3 6 10 10 15 6 5 -3 9 7 9 22 0 15 3
24 7 20 4 -3 6 -49 4 -101 -2 -59 1 -95 7 -95 6 0 18 -7 26 -16 15 -14 16 -13
17 8 0 13 2 42 4 66 4 45 3 47 -23 33 -16 -8 -17 -2 -14 67 4 86 29 142 63
142 16 0 19 6 18 33 -2 35 15 87 29 87 4 0 13 -5 20 -12 9 -9 12 -9 12 1 0 7
9 11 23 9 12 -2 20 -7 17 -13 -3 -5 -9 -9 -13 -7 -5 1 -6 -2 -2 -8 3 -5 13
-10 21 -10 8 0 14 -7 14 -15 0 -8 6 -15 13 -15 8 0 7 -3 -3 -10 -8 -5 -15 -20
-15 -34 -1 -19 2 -23 12 -14 10 8 15 5 21 -13 9 -22 5 -59 -5 -59 -3 0 -3 9 0
20 7 26 -9 26 -23 1 -13 -26 -13 -31 4 -31 8 0 18 -5 22 -11 5 -8 -2 -10 -22
-6 -23 4 -26 3 -13 -6 9 -7 21 -22 28 -35 16 -30 52 -43 90 -32 20 6 32 5 35
-3 4 -7 4 4 1 24 -7 49 8 87 37 91 16 2 24 11 27 28 4 29 17 40 49 40 12 0 22
6 22 13 0 21 -17 40 -29 33 -6 -4 -11 -1 -11 7 0 8 -11 18 -25 21 -28 7 -48
46 -38 73 4 11 3 14 -5 9 -8 -5 -13 2 -14 21 0 15 -2 33 -3 38 -2 6 -3 16 -4
24 -1 11 -4 11 -18 0 -9 -8 -14 -9 -10 -3 4 6 0 26 -9 43 -18 36 -28 41 -19 9
5 -20 2 -19 -22 8 -32 37 -81 69 -90 61 -3 -3 -12 0 -20 8 -17 17 -43 20 -43
5 0 -5 -4 -10 -10 -10 -5 0 -10 7 -10 15 0 20 -53 20 -70 0 -11 -14 -14 -13
-25 2 -9 11 -10 25 -4 40 5 13 7 22 6 22 -1 -1 -18 -10 -37 -20z m115 -126 c4
-14 3 -23 -3 -23 -14 0 -29 50 -23 80 4 25 4 24 12 -5 4 -16 11 -40 14 -52z
m136 37 c21 0 7 -16 -16 -18 -17 -1 -25 3 -25 14 0 11 5 14 16 10 9 -3 20 -6
25 -6z m-81 -35 c0 -8 -2 -15 -4 -15 -2 0 -6 7 -10 15 -3 8 -1 15 4 15 6 0 10
-7 10 -15z m32 -30 c4 -20 2 -24 -16 -20 -12 2 -24 4 -28 4 -16 2 -7 17 15 27
12 7 23 12 23 13 1 0 4 -10 6 -24z m-132 -37 c0 -4 -16 -18 -36 -32 -19 -13
-31 -26 -24 -29 6 -3 5 -4 -2 -3 -7 2 -12 13 -11 25 2 11 -2 21 -7 21 -6 0
-10 5 -10 11 0 5 4 8 8 5 11 -7 52 30 52 47 1 12 29 -32 30 -45z m-76 23 c4
-5 -3 -7 -14 -4 -23 6 -26 13 -6 13 8 0 17 -4 20 -9z m316 -21 c8 -15 8 -20
-3 -20 -7 0 -13 9 -14 20 -1 11 0 20 2 20 2 0 9 -9 15 -20z m-55 -40 c12 0 15
6 10 20 -4 11 -2 20 4 20 6 0 11 -7 11 -16 0 -9 10 -25 23 -36 12 -11 16 -16
8 -12 -28 14 -81 13 -81 -2 0 -11 -4 -12 -19 -2 -18 11 -18 13 -3 25 16 11 16
12 0 13 -10 0 -18 5 -18 11 0 6 7 9 15 5 8 -3 15 0 16 7 0 7 4 2 9 -10 5 -13
17 -23 25 -23z m-88 -10 c4 -21 11 -30 25 -30 10 0 16 -4 13 -10 -13 -22 -43
-10 -54 21 -14 40 -14 49 -1 49 6 0 13 -13 17 -30z m-83 11 c3 -5 -1 -11 -9
-15 -8 -3 -12 -12 -9 -21 3 -8 1 -15 -5 -15 -9 0 -10 32 -2 58 2 6 20 1 25 -7z
m228 -65 c-5 -18 -6 -18 -18 -2 -8 11 -14 13 -19 7 -3 -6 -1 -11 4 -11 6 0 11
-5 11 -11 0 -6 -12 -9 -27 -7 -22 2 -27 8 -25 23 6 30 31 44 57 31 15 -7 20
-16 17 -30z m-314 1 c12 3 14 2 4 -4 -7 -6 -10 -18 -6 -29 4 -14 3 -15 -4 -5
-6 8 -17 11 -32 6 -17 -5 -21 -4 -15 6 17 30 29 41 33 31 2 -6 11 -8 20 -5z
m382 -31 c0 -6 -5 -3 -11 6 -5 10 -16 15 -24 12 -8 -4 -15 -1 -15 6 0 6 5 8
10 5 6 -3 10 0 10 7 1 8 6 6 15 -6 8 -11 15 -25 15 -30z m-452 -41 c-31 -29
-38 -31 -38 -10 0 9 9 15 23 15 18 0 19 2 7 10 -12 8 -10 10 10 10 l25 0 -27
-25z m332 21 c0 -3 -4 -8 -10 -11 -5 -3 -10 -1 -10 4 0 6 5 11 10 11 6 0 10
-2 10 -4z m90 -11 c-32 -18 -44 -19 -29 -2 7 7 22 14 33 14 19 2 18 0 -4 -12z
m-327 -7 c-6 -11 -35 -10 -53 2 -10 6 -4 8 22 7 20 -1 34 -5 31 -9z m267 -18
c0 -5 -4 -10 -10 -10 -5 0 -10 5 -10 10 0 6 5 10 10 10 6 0 10 -4 10 -10z
m-300 -10 c0 -5 -2 -10 -4 -10 -3 0 -8 5 -11 10 -3 6 -1 10 4 10 6 0 11 -4 11
-10z m260 -10 c0 -5 -4 -10 -10 -10 -5 0 -10 5 -10 10 0 6 5 10 10 10 6 0 10
-4 10 -10z m-326 -12 c-5 -9 -2 -9 9 1 24 19 21 -2 -3 -24 -20 -18 -20 -17
-20 8 0 15 5 27 11 27 5 0 7 -6 3 -12z m79 -5 c3 -5 -4 -17 -15 -28 -18 -19
-18 -19 -14 5 2 14 5 26 5 28 2 5 20 1 24 -5z m307 -24 c0 -5 -4 -9 -8 -9 -5
0 -9 7 -9 15 0 8 4 12 9 9 4 -3 8 -9 8 -15z m-360 -19 c0 -5 -6 -10 -12 -10
-8 0 -9 -3 -3 -8 6 -4 11 -14 13 -22 3 -11 -2 -9 -16 5 -14 14 -16 24 -10 33
12 14 28 16 28 2z m43 -35 c-6 -17 -23 -20 -23 -5 0 6 5 10 11 10 5 0 7 5 3
12 -4 7 -3 8 4 4 6 -4 9 -13 5 -21z"/>
<path d="M1025 1975 c-51 -24 -48 -28 15 -29 37 -1 50 8 50 37 0 21 -4 21 -65
-8z"/>
<path d="M920 1905 c-25 -19 -52 -35 -61 -35 -17 0 -69 -73 -69 -96 0 -8 -10
-28 -21 -43 -25 -33 -19 -51 17 -51 22 0 24 -3 18 -22 -3 -13 -3 -20 1 -16 4
4 19 -5 31 -20 17 -19 24 -22 24 -11 0 8 9 25 20 37 26 28 25 33 -5 22 -13 -5
-27 -5 -30 -1 -5 8 41 26 58 23 4 -1 7 2 7 7 0 5 -12 11 -27 14 l-28 4 33 8
c44 10 51 25 11 25 -18 0 -29 3 -26 7 4 3 -1 12 -11 19 -16 13 -16 13 1 14 14
0 16 4 7 19 -16 31 -13 34 28 27 29 -5 33 -4 19 5 -14 8 -16 14 -6 25 6 8 18
14 25 14 8 0 14 7 14 15 0 9 10 15 23 16 17 1 18 2 4 6 -9 2 -15 9 -12 14 10
14 3 11 -45 -26z"/>
<path d="M1006 1865 c-3 -8 -1 -15 3 -15 5 0 11 7 15 15 3 8 1 15 -3 15 -5 0
-11 -7 -15 -15z"/>
<path d="M1021 1841 c-8 -6 -9 -11 -3 -15 6 -3 14 -1 17 5 9 14 2 20 -14 10z"/>
<path d="M901 1794 c0 -11 3 -14 6 -6 3 7 2 16 -1 19 -3 4 -6 -2 -5 -13z"/>
<path d="M940 1786 c0 -15 6 -26 13 -26 8 0 22 -9 32 -20 10 -11 20 -19 22
-17 7 8 -25 59 -46 73 -20 14 -21 14 -21 -10z"/>
<path d="M1030 1705 c0 -8 5 -15 10 -15 6 0 10 7 10 15 0 8 -4 15 -10 15 -5 0
-10 -7 -10 -15z"/>
<path d="M793 1618 c-13 -21 -12 -36 3 -42 8 -3 11 -12 7 -22 -7 -19 7 -14 39
14 15 12 15 16 3 28 -7 8 -21 14 -30 14 -9 0 -13 5 -10 10 3 6 4 10 1 10 -3 0
-8 -6 -13 -12z"/>
<path d="M920 1570 c-11 -11 -20 -24 -20 -30 0 -5 -9 -10 -21 -10 -11 0 -17 5
-14 10 3 6 -3 10 -13 10 -11 0 -22 -6 -25 -13 -6 -16 29 -61 42 -53 5 3 7 -2
4 -13 -7 -29 12 -33 27 -6 7 13 22 26 34 29 16 4 21 13 21 31 -1 13 -4 28 -8
31 -3 3 -3 12 0 20 7 20 -4 17 -27 -6z"/>
<path d="M1203 1509 c-2 -17 1 -18 12 -9 8 7 12 16 9 21 -9 16 -20 10 -21 -12z"/>
<path d="M1226 1387 c3 -10 9 -15 12 -12 3 3 0 11 -7 18 -10 9 -11 8 -5 -6z"/>
<path d="M1890 1312 c-14 -2 -34 -12 -45 -22 -27 -25 -89 -40 -123 -31 -28 8
-80 -4 -68 -16 10 -10 176 -9 176 1 0 5 9 1 19 -8 14 -13 21 -14 27 -5 4 7 3
10 -4 5 -15 -9 -22 7 -8 20 7 7 20 8 34 3 25 -9 26 -13 12 -39 -7 -13 -7 -21
0 -25 6 -3 13 1 16 9 5 12 9 13 19 3 8 -8 10 -16 4 -24 -7 -7 -6 -14 1 -18 13
-8 13 -35 0 -35 -5 0 -10 7 -10 15 0 8 -4 15 -9 15 -5 0 -8 -13 -7 -30 2 -34
-13 -39 -32 -10 -7 11 -17 20 -24 20 -7 0 -5 -7 5 -17 17 -20 10 -30 -38 -51
-26 -12 -31 -11 -42 4 -12 17 -13 16 -13 -4 0 -23 -20 -32 -20 -9 0 6 -8 2
-18 -10 l-17 -23 -20 30 c-26 39 -33 38 -28 -5 l4 -36 -31 33 c-17 18 -30 29
-29 23 3 -22 -2 -29 -11 -15 -5 8 -12 11 -16 7 -4 -3 -1 -13 6 -22 7 -9 9 -19
5 -23 -4 -4 -10 -1 -12 6 -3 6 -12 12 -21 12 -10 0 -13 3 -7 8 12 9 17 42 8
62 -3 8 -6 26 -5 40 l1 25 -8 -25 c-4 -14 -4 -36 1 -50 9 -23 8 -23 -10 -7
-20 18 -34 14 -26 -8 3 -7 1 -16 -5 -20 -6 -3 -15 4 -20 17 -8 20 -9 18 -7
-13 2 -20 6 -40 9 -46 3 -5 -4 -15 -16 -22 -16 -10 -19 -10 -10 -1 6 7 9 19 6
27 -5 12 -7 12 -14 2 -4 -8 -11 -10 -15 -6 -4 3 -1 13 6 22 10 13 9 15 -8 15
-17 0 -19 -5 -16 -37 2 -30 1 -32 -4 -13 -8 25 -8 25 -14 3 -3 -13 -12 -23
-20 -22 -10 0 -10 2 0 6 9 4 10 9 2 18 -8 9 -6 14 5 19 8 3 15 10 15 15 0 6
-7 8 -15 5 -8 -4 -15 -1 -15 5 0 6 8 11 18 12 10 0 12 3 5 6 -7 2 -13 10 -13
18 0 7 -6 18 -14 24 -11 9 -13 5 -10 -24 2 -27 -1 -34 -10 -26 -6 5 -18 6 -25
2 -9 -6 -10 -11 -2 -15 6 -4 11 -2 11 5 0 8 4 9 13 0 8 -6 12 -23 9 -41 -5
-37 -21 -50 -17 -15 1 17 -3 25 -12 25 -10 0 -13 -6 -9 -16 3 -8 2 -12 -4 -9
-6 3 -10 0 -10 -7 -1 -8 -6 -6 -15 6 -11 14 -15 16 -15 5 0 -8 -4 -20 -9 -28
-8 -12 -13 -12 -24 -3 -12 10 -16 9 -21 -3 -3 -8 -11 -15 -18 -15 -9 0 -9 3 2
11 12 9 12 10 -3 5 -10 -3 -21 -6 -24 -6 -3 0 -1 -6 4 -12 6 -7 13 -23 16 -36
4 -19 3 -21 -9 -11 -7 6 -12 15 -9 19 3 5 -5 16 -17 24 -13 10 -17 16 -9 16 8
0 12 2 9 5 -10 11 -34 -6 -35 -25 -2 -17 1 -18 17 -10 16 8 18 8 14 -5 -4 -8
-12 -15 -20 -15 -7 0 -11 -6 -8 -14 4 -9 -3 -16 -18 -19 -14 -3 -7 -5 17 -5
28 -1 36 1 25 8 -22 14 -3 25 22 13 23 -10 34 -10 76 3 16 5 22 2 22 -9 0 -9
-5 -19 -10 -22 -24 -15 5 -23 73 -22 39 1 63 3 52 5 -26 5 -44 22 -24 22 8 0
24 -6 34 -14 11 -8 24 -12 30 -10 5 2 35 6 65 9 81 8 118 15 190 36 70 20 107
39 80 39 -8 0 -2 9 15 20 17 11 44 20 62 20 17 0 33 3 35 8 2 4 22 19 44 34
40 26 65 68 41 68 -7 1 -6 6 3 13 19 14 50 93 50 125 0 13 -6 37 -14 55 -11
28 -18 33 -50 34 -20 1 -33 -3 -30 -8 3 -5 1 -9 -5 -9 -5 0 -11 3 -13 8 -1 4
-14 5 -28 4z m120 -112 c0 -5 -5 -10 -11 -10 -5 0 -7 5 -4 10 3 6 8 10 11 10
2 0 4 -4 4 -10z m-465 -161 c4 -6 5 -12 2 -15 -7 -7 -37 7 -37 17 0 13 27 11
35 -2z m95 -4 c0 -8 -4 -15 -10 -15 -5 0 -10 7 -10 15 0 8 5 15 10 15 6 0 10
-7 10 -15z m207 -7 c-3 -8 -6 -5 -6 6 -1 11 2 17 5 13 3 -3 4 -12 1 -19z m-23
-21 c-3 -9 -11 -17 -16 -17 -6 0 -7 7 -4 16 3 9 6 21 6 27 0 8 3 8 10 1 6 -6
8 -18 4 -27z m-424 -52 c0 -8 -7 -15 -15 -15 -8 0 -15 7 -15 15 0 8 7 15 15
15 8 0 15 -7 15 -15z m-45 -16 c4 -5 -5 -9 -19 -9 -14 0 -26 -4 -26 -10 0 -5
-5 -10 -10 -10 -6 0 -6 7 1 18 12 19 45 26 54 11z"/>
<path d="M1010 1280 c-8 -5 -12 -12 -9 -15 4 -3 12 1 19 10 14 17 11 19 -10 5z"/>
<path d="M653 1233 c-19 -7 -16 -88 3 -107 18 -19 30 -20 40 -4 4 7 3 8 -5 4
-28 -18 -54 61 -30 91 14 15 10 22 -8 16z"/>
<path d="M1525 1200 c-3 -5 -1 -10 4 -10 6 0 11 5 11 10 0 6 -2 10 -4 10 -3 0
-8 -4 -11 -10z"/>
<path d="M1630 1193 c0 -6 8 -17 18 -24 16 -13 16 -13 2 6 -8 11 -16 22 -17
24 -2 2 -3 0 -3 -6z"/>
<path d="M1476 1181 c-3 -5 1 -14 9 -21 13 -10 15 -9 15 9 0 21 -14 28 -24 12z"/>
<path d="M1862 1174 c3 -17 21 -21 26 -6 1 5 -4 12 -13 16 -11 4 -15 1 -13
-10z"/>
<path d="M745 1170 c-3 -5 1 -10 9 -10 8 0 18 5 21 10 3 6 -1 10 -9 10 -8 0
-18 -4 -21 -10z"/>
<path d="M1427 1163 c-13 -13 -7 -21 13 -16 11 3 20 9 20 14 0 10 -24 12 -33
2z"/>
<path d="M1510 1166 c0 -2 7 -6 15 -10 8 -3 15 -1 15 4 0 6 -7 10 -15 10 -8 0
-15 -2 -15 -4z"/>
<path d="M1271 1144 c0 -11 3 -14 6 -6 3 7 2 16 -1 19 -3 4 -6 -2 -5 -13z"/>
<path d="M1190 1141 c-8 -5 -32 -12 -54 -15 -43 -8 -43 -10 -1 -20 22 -5 26
-4 15 4 -12 8 -10 10 10 11 14 1 29 1 33 0 4 -1 15 5 23 14 17 17 1 21 -26 6z"/>
<path d="M1630 1115 c8 -11 15 -21 15 -22 0 -1 7 8 14 20 13 19 12 20 -1 10
-11 -10 -17 -10 -28 0 -11 10 -11 8 0 -8z"/>
<path d="M1841 1113 c7 -12 15 -20 18 -17 3 2 -3 12 -13 22 -17 16 -18 16 -5
-5z"/>
<path d="M1025 1110 c4 -6 11 -8 16 -5 14 9 11 15 -7 15 -8 0 -12 -5 -9 -10z"/>
<path d="M1594 1100 c0 -10 6 -16 13 -13 7 3 13 9 13 13 0 4 -6 10 -13 13 -7
3 -13 -3 -13 -13z"/>
<path d="M934 975 c-15 -11 -16 -15 -4 -15 10 -1 9 -4 -5 -9 -17 -7 -16 -9 9
-15 21 -5 33 -3 45 10 15 15 14 16 -6 5 -31 -16 -35 -14 -23 10 15 27 9 33
-16 14z"/>
<path d="M1093 955 c4 -8 2 -17 -3 -20 -6 -4 -10 0 -10 8 0 9 -11 14 -30 15
-17 0 -28 -4 -25 -9 4 -5 15 -9 26 -9 11 0 22 -7 25 -15 6 -15 38 -15 51 0 5
4 2 5 -4 1 -8 -4 -13 -1 -13 8 0 9 5 16 11 16 5 0 7 5 4 10 -10 16 -38 12 -32
-5z"/>
<path d="M600 922 c0 -4 6 -14 13 -21 10 -10 9 -12 -2 -9 -20 4 -23 -34 -3
-48 36 -27 64 32 33 70 -14 17 -41 22 -41 8z"/>
<path d="M1005 920 c-4 -6 3 -10 14 -10 25 0 27 6 6 13 -8 4 -17 2 -20 -3z"/>
<path d="M1070 870 c0 -5 7 -7 15 -4 8 4 15 8 15 10 0 2 -7 4 -15 4 -8 0 -15
-4 -15 -10z"/>
<path d="M1218 868 c6 -6 18 -8 28 -6 14 3 12 5 -9 10 -19 3 -25 2 -19 -4z"/>
<path d="M630 800 c0 -5 5 -10 11 -10 5 0 7 5 4 10 -3 6 -8 10 -11 10 -2 0 -4
-4 -4 -10z"/>
<path d="M1904 797 c-16 -8 -21 -20 -21 -50 0 -21 3 -33 7 -27 16 26 19 -20 5
-77 -8 -33 -28 -43 -41 -21 -5 7 -2 9 7 4 8 -4 6 -1 -3 7 -10 8 -18 19 -18 26
0 6 -4 11 -9 11 -4 0 -3 -16 3 -35 6 -19 14 -35 18 -35 4 0 5 -7 2 -15 -4 -8
-1 -15 7 -15 7 0 10 -2 8 -5 -3 -2 -33 7 -66 20 -80 33 -196 47 -226 28 -7 -4
-21 -6 -32 -5 -16 2 -17 1 -5 -7 23 -16 7 -22 -72 -26 -40 -3 -67 -1 -60 4 7
4 10 15 6 24 -5 15 -9 15 -41 2 -23 -10 -40 -12 -47 -6 -6 5 -40 13 -76 17
-36 3 -71 12 -79 18 -12 9 -13 7 -9 -9 4 -18 1 -21 -31 -20 -24 0 -35 4 -33
13 1 8 -2 11 -8 7 -6 -3 -8 -11 -5 -16 6 -8 -48 -14 -84 -10 -7 2 -10 -2 -7
-7 3 -6 -5 -5 -19 1 -14 7 -25 18 -25 26 0 8 -3 11 -7 7 -5 -4 -8 -12 -8 -17
0 -5 -3 -9 -7 -9 -5 0 -13 0 -19 0 -5 0 -8 4 -5 9 3 5 -2 12 -11 15 -9 4 -20
1 -24 -5 -4 -6 -12 -8 -18 -5 -6 4 -9 11 -6 16 3 5 -13 8 -35 7 -22 -1 -40 -5
-40 -9 0 -4 -8 -4 -17 -1 -15 6 -16 4 -6 -9 7 -8 11 -17 8 -20 -3 -3 1 -18 10
-34 19 -37 19 -45 0 -38 -8 4 -15 12 -15 19 0 8 -5 17 -11 20 -5 4 -3 -10 7
-32 9 -21 16 -42 16 -48 -2 -30 -11 -48 -40 -76 -18 -17 -32 -36 -32 -42 0 -6
-3 -7 -7 -4 -3 4 -12 2 -20 -4 -7 -6 -13 -8 -13 -3 0 5 -6 -2 -13 -15 -6 -13
-19 -27 -27 -31 -8 -4 -30 -15 -48 -24 -17 -10 -35 -15 -40 -13 -4 3 -31 1
-60 -3 -29 -3 -55 -3 -58 1 -2 5 -11 6 -20 2 -12 -4 -10 -9 8 -22 33 -23 247
-21 343 3 95 24 241 48 290 48 388 -6 436 -5 550 12 120 17 224 44 278 72 29
15 97 82 97 96 0 4 -14 22 -32 40 -26 27 -29 33 -15 36 9 2 17 10 17 18 0 8 7
25 15 37 11 18 13 42 8 110 -3 48 -9 86 -12 86 -3 -1 -16 -6 -27 -12z m-1046
-206 c40 -37 40 -44 2 -36 -23 5 -30 3 -30 -9 0 -9 -4 -16 -10 -16 -18 0 -10
29 13 45 l22 15 -22 6 c-13 4 -23 10 -23 15 0 16 15 10 48 -20z m-61 -11 c-2
-24 -1 -24 -22 -4 -13 13 -14 19 -4 25 18 11 28 2 26 -21z m177 1 c9 -13 -19
-21 -35 -9 -11 8 -10 9 4 4 9 -3 17 -1 17 4 0 12 7 13 14 1z m-54 -37 c0 -7 9
-16 20 -19 11 -3 20 -11 20 -17 0 -6 -6 -6 -15 2 -10 8 -15 9 -15 2 0 -19 -26
-3 -26 16 -1 9 -5 26 -9 37 -8 18 -7 18 8 6 9 -7 17 -19 17 -27z m130 26 c0
-5 -7 -7 -15 -4 -8 4 -15 8 -15 10 0 2 7 4 15 4 8 0 15 -4 15 -10z m30 0 c0
-5 -4 -10 -10 -10 -5 0 -10 5 -10 10 0 6 5 10 10 10 6 0 10 -4 10 -10z m-80
-10 c0 -5 -5 -10 -11 -10 -5 0 -7 5 -4 10 3 6 8 10 11 10 2 0 4 -4 4 -10z
m-128 -35 c0 -5 -5 -11 -11 -13 -6 -2 -11 4 -11 13 0 9 5 15 11 13 6 -2 11 -8
11 -13z m260 1 c-3 -5 2 -6 12 -3 15 6 15 5 -1 -18 -10 -13 -21 -25 -25 -25
-4 0 -5 -8 -2 -17 5 -16 4 -16 -10 1 -8 10 -17 24 -19 30 -2 6 -8 7 -13 3 -5
-4 -2 -13 6 -18 13 -9 13 -10 0 -6 -22 5 -25 39 -6 53 19 14 67 14 58 0z
m-113 -12 c-12 -15 -11 -16 9 -10 12 4 22 3 22 -2 0 -5 -10 -12 -23 -14 -17
-3 -26 2 -34 19 -10 21 -9 23 14 23 22 0 24 -2 12 -16z m-219 -14 c0 -5 -2
-10 -4 -10 -3 0 -8 5 -11 10 -3 6 -1 10 4 10 6 0 11 -4 11 -10z m260 -41 c0
-5 -4 -9 -10 -9 -5 0 -10 7 -10 16 0 8 5 12 10 9 6 -3 10 -10 10 -16z m-247
-37 c21 -23 13 -32 -25 -32 -32 0 -33 2 -16 30 16 25 21 25 41 2z m407 -62 c0
-5 -5 -10 -11 -10 -5 0 -7 5 -4 10 3 6 8 10 11 10 2 0 4 -4 4 -10z m35 0 c-3
-5 -12 -10 -18 -10 -7 0 -6 4 3 10 19 12 23 12 15 0z m65 -37 c0 -5 -19 -9
-43 -10 -31 -1 -37 1 -22 7 25 11 65 12 65 3z m53 0 c-7 -2 -21 -2 -30 0 -10
3 -4 5 12 5 17 0 24 -2 18 -5z"/>
<path d="M1095 520 c3 -5 8 -10 11 -10 2 0 4 5 4 10 0 6 -5 10 -11 10 -5 0 -7
-4 -4 -10z"/>
<path d="M1756 718 c-3 -13 -5 -25 -5 -27 2 -12 -28 -17 -83 -14 -59 2 -61 1
-38 -12 30 -17 54 -19 44 -3 -5 7 -3 8 7 2 8 -5 22 -7 32 -5 10 1 26 -4 35
-12 10 -8 29 -17 45 -19 24 -5 27 -3 21 16 -3 11 -12 31 -20 43 -8 12 -14 29
-14 38 0 23 -17 18 -24 -7z"/>
<path d="M1168 721 c-25 -6 -26 -7 -13 -31 11 -18 14 -21 15 -8 0 10 12 24 28
32 28 16 17 18 -30 7z"/>
<path d="M1790 721 c0 -6 4 -13 10 -16 6 -3 7 1 4 9 -7 18 -14 21 -14 7z"/>
<path d="M1111 688 c0 -9 4 -20 9 -23 6 -3 10 -15 10 -25 0 -10 5 -22 12 -26
7 -4 8 -3 4 5 -4 6 -3 18 4 26 9 10 7 15 -9 20 -11 3 -22 14 -24 23 -4 16 -5
16 -6 0z"/>
<path d="M690 670 c8 -5 20 -10 25 -10 6 0 3 5 -5 10 -8 5 -19 10 -25 10 -5 0
-3 -5 5 -10z"/>
<path d="M745 659 c-4 -6 -5 -12 -2 -15 2 -3 7 2 10 11 7 17 1 20 -8 4z"/>
<path d="M770 660 c0 -5 7 -7 15 -4 8 4 15 8 15 10 0 2 -7 4 -15 4 -8 0 -15
-4 -15 -10z"/>
<path d="M1328 663 c7 -3 16 -2 19 1 4 3 -2 6 -13 5 -11 0 -14 -3 -6 -6z"/>
<path d="M716 633 c-6 -14 -5 -15 5 -6 7 7 10 15 7 18 -3 3 -9 -2 -12 -12z"/>
<path d="M1335 619 c-4 -6 -5 -13 -2 -16 7 -7 27 6 27 18 0 12 -17 12 -25 -2z"/>
<path d="M340 295 c7 -8 17 -15 22 -15 6 0 5 7 -2 15 -7 8 -17 15 -22 15 -6 0
-5 -7 2 -15z"/>
</g>
</svg>
